<?xml version="1.0" encoding="utf-8"?>
<!-- Generator: Adobe Illustrator 22.1.0, SVG Export Plug-In . SVG Version: 6.00 Build 0)  -->
<svg version="1.1" id="Слой_1" xmlns="http://www.w3.org/2000/svg" xmlns:xlink="http://www.w3.org/1999/xlink" x="0px" y="0px"
	 viewBox="0 0 72 72" style="enable-background:new 0 0 72 72;" xml:space="preserve">
<style type="text/css">
	.st0{stroke:#000000;stroke-miterlimit:10;}
</style>
<path class="st0" d="M67,67H35.8h-0.9C17.5,67.3,4.8,52.9,5,36C4.8,19.1,17.5,4.7,34.9,5c17.4-0.3,30.2,14.1,30,31
	c0.2,8.6-3.1,16.4-8.5,22.1H67L67,67L67,67z M34.9,58c12.6,0,20.5-9.5,20.5-22c0-12.4-7.9-22.1-20.5-22.1
	c-12.4,0-20.5,9.7-20.5,22.1C14.4,48.5,22.5,58,34.9,58z"/>
<g>
	<path d="M35.3,51.7c-0.1,0-0.1,0-0.2,0c0,0,0,0,0,0c0,0,0,0,0,0l0,0c0,0,0,0-0.1,0c0,0,0,0-0.1,0l0,0c0,0,0,0,0,0c0,0,0,0,0,0
		c-0.1,0-0.1-0.1-0.1-0.1l-4-4.2c-0.2-0.2-0.3-0.4-0.3-0.7l0-13.1h-2.5c-0.6,0-1.2-0.3-1.6-0.7c-0.4-0.5-0.7-1.1-0.7-1.7v-1.2
		c0-0.7,0.2-1.3,0.7-1.7c0.4-0.5,1-0.7,1.6-0.7l4.5,0v-5c0-0.5,0.2-1,0.5-1.4c0.3-0.4,0.8-0.6,1.3-0.6h2.1c1,0,1.8,0.9,1.8,1.9v5
		h4.5c0.6,0,1.2,0.3,1.6,0.7c0.4,0.5,0.7,1.1,0.7,1.7v1.2c0,0.7-0.2,1.3-0.7,1.7c-0.4,0.5-1,0.7-1.6,0.7h-2.5l0,13.1
		c0,0.3-0.1,0.5-0.3,0.7l-4,4.2c0,0-0.1,0.1-0.1,0.1c0,0,0,0,0,0c0,0,0,0,0,0l0,0c0,0,0,0-0.1,0s0,0-0.1,0l0,0c0,0,0,0,0,0
		c0,0,0,0,0,0C35.4,51.7,35.3,51.7,35.3,51.7L35.3,51.7z M32.2,33.3l0,12.8l2.2,2.3l0-10.4c0-0.3,0.1-0.5,0.3-0.7
		c0.2-0.2,0.4-0.3,0.6-0.3c0.5,0,0.9,0.4,0.9,1l0,10.4l2.2-2.3l0-12.8L32.2,33.3z M27.9,29.1c-0.2,0-0.3,0.1-0.4,0.2
		s-0.1,0.2-0.1,0.4v1.2c0,0.2,0.1,0.3,0.1,0.4c0.1,0.1,0.2,0.2,0.4,0.2l14.8,0c0.2,0,0.3-0.1,0.4-0.2s0.1-0.2,0.1-0.4v-1.2
		c0-0.2-0.1-0.3-0.1-0.4c-0.1-0.1-0.2-0.2-0.4-0.2l0,0L27.9,29.1z M34.2,22.2v5h2.2v-5H34.2z"/>
	<path d="M36.3,20.3c1,0,1.8,0.9,1.8,1.9v4.9v0.1h0.1h4.5c0.6,0,1.2,0.2,1.6,0.7c0.4,0.4,0.7,1.1,0.7,1.7v1.2c0,0.6-0.2,1.3-0.7,1.7
		c-0.4,0.4-1,0.7-1.6,0.7h-2.5h-0.1v0.1l0,13.1c0,0.2-0.1,0.5-0.2,0.6l-4,4.2c0,0-0.1,0.1-0.1,0.1c0,0,0,0,0,0c0,0,0,0,0,0l0,0
		c0,0,0,0-0.1,0c0,0,0,0-0.1,0l0,0c0,0,0,0,0,0c0,0,0,0,0,0c-0.1,0-0.1,0-0.2,0s-0.1,0-0.2,0c0,0,0,0,0,0s0,0,0,0c0,0,0,0,0,0
		c0,0,0,0-0.1,0c0,0,0,0-0.1,0l0,0c0,0,0,0,0,0c0,0,0,0,0,0c-0.1,0-0.1-0.1-0.1-0.1l-4-4.2c-0.2-0.2-0.3-0.4-0.3-0.6l0-13.1v-0.1
		h-0.1h-2.5c-0.6,0-1.2-0.2-1.6-0.7c-0.4-0.4-0.7-1.1-0.7-1.7v-1.2c0-0.6,0.2-1.3,0.7-1.7c0.4-0.4,1-0.7,1.6-0.7l4.5,0h0.1v-0.1
		v-4.9c0-0.5,0.2-1,0.5-1.3c0.3-0.4,0.8-0.6,1.3-0.6L36.3,20.3L36.3,20.3 M34.1,27.3L34.1,27.3h2.2h0.1v-0.1v-4.9v-0.1h-0.1h-2.1
		h-0.1v0.1V27.3L34.1,27.3 M27.9,31.5L27.9,31.5L27.9,31.5l14.8,0c0.2,0,0.3-0.1,0.4-0.2c0.1-0.1,0.2-0.2,0.2-0.4v-1.2
		c0-0.2-0.1-0.4-0.2-0.4C43,29.2,42.9,29,42.7,29l-14.8,0c-0.2,0-0.3,0.1-0.4,0.2c-0.1,0.1-0.2,0.2-0.2,0.4v1.2
		c0,0.2,0.1,0.4,0.2,0.4C27.5,31.4,27.7,31.5,27.9,31.5 M34.4,48.5v-0.2l0-10.3c0-0.2,0.1-0.5,0.2-0.6c0.2-0.2,0.4-0.3,0.6-0.3
		c0.5,0,0.9,0.4,0.9,0.9l0,10.3v0.2l0.1-0.2l2.1-2.2l0,0v0l0-12.7v-0.1h-0.1l-6.1,0h-0.1v0.1l0,12.7v0l0,0l2.1,2.2L34.4,48.5
		 M36.3,20.2L36.3,20.2h-2.1c-1,0-1.9,0.9-1.9,2v4.9l-4.5,0c-0.6,0-1.2,0.3-1.7,0.7c-0.4,0.5-0.7,1.1-0.7,1.8v1.2
		c0,0.7,0.2,1.3,0.7,1.8c0.4,0.5,1,0.7,1.7,0.7l0,0h2.5l0,13.1c0,0.3,0.1,0.5,0.3,0.7l4,4.2c0,0,0.1,0.1,0.1,0.1c0,0,0.1,0,0.1,0
		c0,0,0.1,0,0.1,0.1c0,0,0.1,0,0.1,0c0,0,0.1,0,0.1,0c0.1,0,0.1,0,0.2,0s0.1,0,0.2,0c0,0,0.1,0,0.1,0c0,0,0.1,0,0.1,0s0.1,0,0.1-0.1
		c0,0,0.1,0,0.1,0c0.1,0,0.1-0.1,0.1-0.1l4-4.2c0.2-0.2,0.3-0.4,0.3-0.7l0-13.1h2.5c0.6,0,1.2-0.3,1.7-0.7c0.4-0.5,0.7-1.1,0.7-1.8
		v-1.2c0-0.7-0.2-1.3-0.7-1.8c-0.4-0.5-1-0.7-1.7-0.7l0,0h-4.5v-4.9C38.2,21.1,37.3,20.2,36.3,20.2L36.3,20.2z M34.2,27.2v-4.9h2.1
		v4.9H34.2L34.2,27.2z M27.9,31.4c-0.2,0-0.3-0.1-0.3-0.1c-0.1-0.1-0.1-0.2-0.1-0.4v-1.2c0-0.2,0.1-0.3,0.1-0.4
		c0.1-0.1,0.2-0.1,0.3-0.1l14.8,0c0.2,0,0.3,0.1,0.3,0.1c0.1,0.1,0.1,0.2,0.1,0.4v1.2c0,0.2-0.1,0.3-0.1,0.4s-0.2,0.1-0.3,0.1
		L27.9,31.4L27.9,31.4z M34.3,48.3l-2.1-2.2l0-12.7l6.1,0l0,12.7l-2.1,2.2l0-10.3c0-0.5-0.4-1-0.9-1l0,0l0,0c-0.3,0-0.5,0.1-0.7,0.3
		c-0.2,0.2-0.3,0.4-0.3,0.7L34.3,48.3L34.3,48.3z"/>
</g>
<g>
</g>
<g>
</g>
<g>
</g>
<g>
</g>
<g>
</g>
<g>
</g>
<g>
</g>
<g>
</g>
<g>
</g>
<g>
</g>
<g>
</g>
<g>
</g>
<g>
</g>
<g>
</g>
<g>
</g>
</svg>
