<?xml version="1.0" encoding="utf-8"?>
<!-- Generator: Adobe Illustrator 22.1.0, SVG Export Plug-In . SVG Version: 6.00 Build 0)  -->
<svg version="1.1" id="Слой_1" xmlns="http://www.w3.org/2000/svg" xmlns:xlink="http://www.w3.org/1999/xlink" x="0px" y="0px"
	 viewBox="0 0 1728 1296" style="enable-background:new 0 0 1728 1296;" xml:space="preserve">
<style type="text/css">
	.st0{stroke:#000000;stroke-miterlimit:10;}
</style>
<g>
	<g>
	</g>
	<g>
		<path class="st0" d="M482.9,778.8H331.7h-4.5c-84.4,1.2-146.3-66.3-145.1-146.1c-1.2-79.8,60.7-147.3,145.1-146.1
			c84.4-1.2,146.7,66.3,145.5,146.1c0.8,40.3-15.1,77.4-41.2,104.1h51.3V778.8z M327.2,736.4c61.1,0,99.4-44.9,99.4-103.7
			c0-58.4-38.3-104.1-99.4-104.1c-60.3,0-99.4,45.7-99.4,104.1C227.8,691.6,266.9,736.4,327.2,736.4z"/>
		<path class="st0" d="M519.5,686.6V559.8h44v128c0,0-2.4,52.3,51.8,52.3c54.2,0,51.8-52.3,51.8-52.3v-128h44v126.8
			c0,90.5-69.3,92.6-95.8,92.6C588.8,779.2,519.5,777.2,519.5,686.6z"/>
		<path class="st0" d="M755.9,666c0-63.8,48.5-112.4,113.7-112.4c61.1,0,96.6,51,96.6,102.5v20.6H797.9
			c4.9,32.9,27.7,62.6,75.4,62.6c51.8,0,83.1-22.2,83.5-22.2V757c0,0-22.8,21.8-84.4,21.8C798.3,778.8,755.9,727.4,755.9,666z
			 M922.1,642.2c-1.6-16.5-12.2-52.3-58.3-52.3s-61.5,35.8-64,52.3H922.1z"/>
		<path class="st0" d="M998.8,758.6V715c0,0,27.7,24.3,61.9,24.3c28.1,0,42.4-8.6,42.4-22.6c0-15.6-14.3-25.1-39.1-39.1
			c-27.7-15.6-53-29.2-53-64.6c0-36.2,31.4-59.3,69.7-59.3c25.7,0,44.4,7.8,54.6,14v43.6c-9.4-9.1-28.1-18.1-49.3-18.1
			c-23.6,0-33.4,7.8-33.4,18.9c0,13.6,11.4,18.1,47.7,39.5c28.1,16.5,44,30.5,44,62.6c0,32.5-24,64.6-83.1,64.6
			C1025.2,778.8,998.8,758.6,998.8,758.6z"/>
		<path class="st0" d="M1401,686.6V559.8h44v128c0,0-2.4,52.3,51.8,52.3c54.2,0,51.8-52.3,51.8-52.3v-128h44v126.8
			c0,90.5-69.3,92.6-95.8,92.6S1401,777.2,1401,686.6z"/>
	</g>
	<g>
		<path d="M1271.5,784.3c-0.7,0-1.3-0.1-2-0.2c-0.2,0-0.3-0.1-0.5-0.2c-0.1,0-0.2-0.1-0.4-0.1l-0.3-0.1c-0.2-0.1-0.5-0.1-0.7-0.2
			c-0.2-0.1-0.5-0.2-0.7-0.4l-0.3-0.2c-0.1-0.1-0.2-0.1-0.3-0.2c-0.2-0.1-0.3-0.2-0.5-0.3c-0.6-0.4-1.1-0.9-1.6-1.3l-45.4-47.9
			c-1.9-2-3-4.8-3-7.7l-0.1-149.2l-28.5,0c-7,0-13.6-2.9-18.5-8.1c-5-5.2-7.7-12.2-7.7-19.6l0-14.1c0-7.4,2.7-14.4,7.7-19.7
			c4.9-5.2,11.5-8.1,18.5-8.1l51.2-0.1l0-56.5c0-5.9,2.2-11.5,6.1-15.7c3.9-4.2,9.2-6.5,14.7-6.5l23.9,0c11.5,0,20.9,9.9,20.9,22.1
			l0,56.5l51.1,0c7,0,13.6,2.9,18.5,8.1c5,5.2,7.7,12.2,7.7,19.6l0,14.1c0,7.4-2.7,14.4-7.7,19.7c-4.9,5.2-11.5,8.1-18.5,8.1
			l-28.5,0l0.1,149.2c0,2.9-1.1,5.6-3,7.7l-45.3,48c-0.4,0.5-1,0.9-1.5,1.4c-0.1,0.1-0.3,0.2-0.5,0.3c-0.1,0.1-0.2,0.1-0.3,0.2
			l-0.3,0.2c-0.2,0.1-0.5,0.3-0.7,0.4c-0.2,0.1-0.5,0.2-0.7,0.3l-0.3,0.1c-0.1,0-0.2,0.1-0.3,0.1c-0.2,0.1-0.4,0.1-0.5,0.2
			C1272.8,784.3,1272.1,784.3,1271.5,784.3L1271.5,784.3z M1236.2,576.4l0.1,144.7l25,26.4l-0.1-117.9c0-2.9,1.1-5.6,3-7.7
			c1.9-2,4.5-3.2,7.2-3.2c5.6,0,10.2,4.8,10.2,10.8l0.1,117.9l24.9-26.5l-0.1-144.7L1236.2,576.4z M1187.3,528.5
			c-2.1,0-3.5,1.1-4.1,1.8c-0.6,0.7-1.7,2.1-1.7,4.3l0,14.1c0,2.2,1.1,3.7,1.7,4.3c0.6,0.7,2,1.8,4.1,1.8l168-0.2
			c2.1,0,3.5-1.1,4.1-1.8c0.6-0.7,1.7-2.1,1.7-4.3l0-14.1c0-2.2-1.1-3.7-1.7-4.3c-0.6-0.7-2-1.8-4.1-1.8h0L1187.3,528.5z
			 M1258.7,449.8l0,57l25,0l0-57L1258.7,449.8z"/>
		<path d="M1283.2,428.6c11.2,0,20.3,9.7,20.4,21.6l0,56l0,1l1,0l50.7,0c6.8,0,13.3,2.8,18.1,8c4.9,5.1,7.6,12,7.6,19.3l0,14.1
			c0,7.3-2.7,14.2-7.5,19.3c-4.9,5.1-11.3,8-18.2,8l-28,0l-1,0l0,1l0.1,148.7c0,2.7-1,5.4-2.8,7.3l-45.3,48
			c-0.4,0.5-0.9,0.9-1.5,1.3c-0.1,0.1-0.3,0.2-0.4,0.2c-0.1,0.1-0.2,0.1-0.3,0.2l-0.3,0.2c-0.2,0.1-0.4,0.3-0.6,0.4
			c-0.2,0.1-0.4,0.2-0.7,0.2l-0.3,0.1c-0.1,0-0.2,0.1-0.3,0.1c-0.2,0.1-0.3,0.1-0.5,0.1c-0.6,0.1-1.3,0.2-1.9,0.2
			c-0.6,0-1.3-0.1-1.9-0.2c-0.1,0-0.3-0.1-0.4-0.1c-0.1,0-0.2-0.1-0.4-0.1c-0.1,0-0.2-0.1-0.3-0.1c-0.2-0.1-0.5-0.1-0.7-0.2
			c-0.2-0.1-0.4-0.2-0.6-0.3l-0.3-0.2c-0.1-0.1-0.2-0.1-0.3-0.2c-0.2-0.1-0.3-0.2-0.4-0.2c-0.6-0.4-1.1-0.8-1.5-1.3l-45.4-47.9
			c-1.8-1.9-2.9-4.6-2.9-7.3l-0.1-148.7l0-1l-1,0l-28,0c-6.8,0-13.3-2.8-18.1-8c-4.9-5.1-7.6-12-7.6-19.3l0-14.1
			c0-7.3,2.7-14.2,7.5-19.3c4.9-5.1,11.3-8,18.2-8l50.7-0.1l1,0l0-1l0-56c0-5.8,2.1-11.2,6-15.3c3.8-4.1,8.9-6.3,14.4-6.3
			L1283.2,428.6L1283.2,428.6 M1258.3,507.3l1,0l24,0l1,0l0-1l0-56l0-1l-1,0l-24,0l-1,0l0,1l0,56L1258.3,507.3 M1187.3,555.3
			L1187.3,555.3L1187.3,555.3l168-0.2c2.3,0,3.8-1.2,4.5-2c0.7-0.7,1.8-2.3,1.8-4.7l0-14.1c0-2.4-1.2-4-1.8-4.7
			c-0.7-0.7-2.2-2-4.5-2l-168,0.2c-2.3,0-3.8,1.2-4.5,2c-0.7,0.7-1.8,2.3-1.8,4.7l0,14.1c0,2.4,1.2,4,1.8,4.7
			C1183.5,554.1,1185,555.3,1187.3,555.3 M1261.8,748.7l0-2.5l-0.1-116.7c0-2.8,1-5.4,2.8-7.3c1.8-1.9,4.2-3,6.8-3
			c5.3,0,9.7,4.6,9.7,10.3l0.1,116.7l0,2.5l1.7-1.8l23.9-25.4l0.3-0.3l0-0.4l-0.1-144l0-1l-1,0l-69.3,0.1l-1,0l0,1l0.1,144l0,0.4
			l0.3,0.3l24,25.3L1261.8,748.7 M1283.2,427.6C1283.2,427.6,1283.2,427.6,1283.2,427.6l-24,0c-11.8,0-21.4,10.2-21.3,22.6l0,56
			l-50.7,0.1c-7.1,0-13.8,3-18.9,8.3s-7.8,12.5-7.8,20l0,14.1c0,7.5,2.8,14.7,7.8,20c5,5.3,11.7,8.3,18.9,8.3c0,0,0,0,0,0l28,0
			l0.1,148.7c0,3,1.1,5.9,3.1,8l45.4,47.9c0.5,0.5,1,1,1.6,1.4c0.3,0.2,0.6,0.3,0.8,0.5c0.3,0.2,0.7,0.4,1,0.6
			c0.4,0.2,0.7,0.2,1.1,0.4c0.3,0.1,0.6,0.2,0.9,0.3c0.7,0.1,1.4,0.2,2.1,0.2c0.7,0,1.4-0.1,2.1-0.2c0.3-0.1,0.6-0.2,0.9-0.3
			c0.4-0.1,0.7-0.2,1.1-0.4c0.4-0.2,0.7-0.4,1-0.6c0.3-0.2,0.6-0.3,0.8-0.5c0.6-0.4,1.1-0.9,1.6-1.4l45.3-48c2-2.1,3.1-5,3.1-8
			l-0.1-148.7l28,0c7.1,0,13.8-3,18.9-8.3c5-5.3,7.8-12.5,7.8-20l0-14.1c0-7.5-2.8-14.7-7.8-20c-5-5.3-11.7-8.3-18.9-8.3
			c0,0,0,0,0,0l-50.6,0l0-56C1304.5,437.8,1294.9,427.6,1283.2,427.6L1283.2,427.6z M1259.3,506.3l0-56l24,0l0,56L1259.3,506.3
			L1259.3,506.3z M1187.3,554.3c-1.9,0-3.2-1-3.8-1.7c-0.6-0.6-1.6-2-1.6-4l0-14.1c0-2,1-3.4,1.6-4c0.6-0.6,1.8-1.7,3.8-1.7l168-0.2
			c1.9,0,3.2,1,3.8,1.7c0.6,0.6,1.6,2,1.6,4l0,14.1c0,2-1,3.4-1.6,4c-0.6,0.6-1.8,1.7-3.8,1.7L1187.3,554.3L1187.3,554.3z
			 M1260.7,746.2l-24-25.3l-0.1-144l69.3-0.1l0.1,144l-23.9,25.4l-0.1-116.7c0-6.2-4.8-11.3-10.7-11.3c0,0,0,0,0,0c0,0,0,0,0,0
			c-2.9,0-5.6,1.3-7.5,3.3c-1.9,2.1-3.1,4.9-3.1,8L1260.7,746.2L1260.7,746.2z"/>
	</g>
</g>
<g>
</g>
<g>
</g>
<g>
</g>
<g>
</g>
<g>
</g>
<g>
</g>
<g>
</g>
<g>
</g>
<g>
</g>
<g>
</g>
<g>
</g>
<g>
</g>
<g>
</g>
<g>
</g>
<g>
</g>
</svg>
